<?xml version="1.0" standalone="no"?>
<!DOCTYPE svg PUBLIC "-//W3C//DTD SVG 20010904//EN"
 "http://www.w3.org/TR/2001/REC-SVG-20010904/DTD/svg10.dtd">
<svg version="1.0" xmlns="http://www.w3.org/2000/svg"
 width="160.000000pt" height="160.000000pt" viewBox="0 0 160.000000 160.000000"
 preserveAspectRatio="xMidYMid meet">

<g transform="translate(0.000000,160.000000) scale(0.100000,-0.100000)"
fill="#000000" stroke="none">
<path d="M126 1518 c-10 -119 -15 -137 -43 -155 -20 -13 -31 -14 -54 -6 -28
11 -29 11 -29 -23 l0 -34 53 0 c98 0 128 44 135 198 l5 102 -31 0 -30 0 -6
-82z"/>
<path d="M340 1590 c0 -12 8 -12 35 0 18 8 17 9 -7 9 -16 1 -28 -3 -28 -9z"/>
<path d="M431 1458 l2 -143 -41 -9 c-24 -5 -42 -15 -42 -22 0 -11 22 -14 99
-14 89 0 99 2 104 19 6 26 0 31 -36 31 l-30 0 6 140 5 140 -35 0 -34 0 2 -142z"/>
<path d="M759 1537 c-37 -34 -86 -78 -110 -98 -47 -40 -49 -56 -4 -39 20 8 43
8 77 0 81 -17 123 -13 156 15 16 14 32 33 35 44 4 18 3 18 -30 5 -22 -10 -61
-14 -109 -12 l-75 3 85 63 c47 35 88 68 92 73 3 5 -7 9 -23 9 -20 0 -46 -17
-94 -63z"/>
<path d="M1180 1581 c-14 -11 -36 -21 -50 -22 -14 -2 -26 -12 -28 -21 -3 -14
3 -18 25 -18 37 0 49 -9 62 -44 25 -64 -35 -166 -98 -166 -33 0 -54 23 -65 73
-11 48 -76 31 -76 -21 0 -37 17 -58 60 -76 53 -21 105 -20 155 3 111 50 149
172 75 234 l-29 25 32 26 32 25 -35 0 c-19 0 -46 -8 -60 -18z"/>
<path d="M1355 1568 c-67 -162 -74 -188 -56 -188 4 0 29 50 53 110 34 81 42
110 31 110 -8 0 -20 -15 -28 -32z"/>
<path d="M1381 1494 c-38 -99 -45 -132 -21 -108 8 8 90 200 90 211 0 1 -6 3
-13 3 -8 0 -32 -45 -56 -106z"/>
<path d="M1471 1578 c-5 -13 -23 -58 -40 -101 -34 -84 -37 -101 -20 -95 6 2
31 52 54 111 32 80 40 107 29 107 -8 0 -18 -10 -23 -22z"/>
<path d="M1536 1591 c-11 -17 -76 -190 -76 -201 0 -7 5 -10 11 -8 10 3 89 190
89 211 0 10 -18 9 -24 -2z"/>
<path d="M1562 1433 c3 -51 28 -75 28 -26 0 39 -10 73 -22 73 -5 0 -8 -21 -6
-47z"/>
<path d="M1280 1360 c0 -6 60 -10 160 -10 100 0 160 4 160 10 0 6 -60 10 -160
10 -100 0 -160 -4 -160 -10z"/>
<path d="M1290 1310 c0 -6 58 -10 155 -10 97 0 155 4 155 10 0 6 -58 10 -155
10 -97 0 -155 -4 -155 -10z"/>
<path d="M1290 1260 c0 -6 58 -10 155 -10 97 0 155 4 155 10 0 6 -58 10 -155
10 -97 0 -155 -4 -155 -10z"/>
<path d="M1576 1232 c-8 -13 5 -82 15 -82 12 0 11 77 0 85 -5 3 -12 1 -15 -3z"/>
<path d="M360 945 l0 -165 35 0 35 0 0 73 c0 39 4 77 8 83 15 22 51 35 71 25
26 -14 31 -32 31 -112 l0 -69 36 0 36 0 -4 95 c-3 86 -5 97 -29 120 -29 29
-89 36 -127 16 -21 -11 -22 -10 -22 44 l0 55 -35 0 -35 0 0 -165z"/>
<path d="M52 1063 c3 -27 5 -28 51 -25 l47 4 0 -131 0 -131 35 0 35 0 1 105
c2 165 -4 150 57 153 48 3 52 5 52 28 l0 24 -141 0 -140 0 3 -27z"/>
<path d="M750 1019 c-54 -11 -90 -59 -90 -117 0 -80 48 -122 138 -122 63 0 99
25 77 53 -12 17 -17 17 -50 6 -31 -11 -40 -11 -62 1 -54 30 -40 40 56 40 91 0
91 0 91 25 0 30 -22 76 -44 94 -23 19 -76 28 -116 20z m71 -59 c10 -6 19 -17
19 -25 0 -11 -13 -15 -55 -15 -41 0 -55 4 -55 15 0 29 54 44 91 25z"/>
<path d="M968 668 c-2 -51 -2 -109 0 -129 l3 -36 72 -1 c75 -1 95 7 115 45 43
80 -42 174 -119 133 -17 -10 -19 -7 -19 35 0 41 -2 45 -24 45 -24 0 -25 -2
-28 -92z m126 -31 c35 -26 17 -97 -25 -97 -46 0 -66 67 -27 94 27 19 29 19 52
3z"/>
<path d="M80 620 l0 -120 25 0 c24 0 25 2 25 70 0 39 3 70 8 70 4 -1 32 -32
62 -70 39 -49 62 -70 78 -70 22 0 22 2 22 120 l0 120 -25 0 c-23 0 -24 -3 -27
-71 l-3 -70 -58 70 c-43 53 -64 71 -83 71 l-24 0 0 -120z"/>
<path d="M360 615 c0 -62 4 -79 20 -95 22 -22 70 -26 101 -10 13 7 19 7 19 0
0 -5 11 -10 25 -10 25 0 25 0 25 95 l0 95 -30 0 -30 0 0 -65 c0 -54 -3 -66
-20 -75 -14 -8 -26 -8 -40 0 -17 9 -20 21 -20 75 0 63 -1 65 -25 65 -24 0 -25
-2 -25 -75z"/>
<path d="M600 595 c0 -95 0 -95 25 -95 24 0 25 3 25 53 0 63 16 90 51 85 22
-3 24 -7 27 -70 3 -65 4 -68 27 -68 23 0 25 3 25 53 0 63 16 90 51 85 22 -3
24 -7 27 -70 l3 -68 31 0 30 0 -4 76 c-3 65 -7 79 -27 95 -27 22 -69 25 -97 5
-17 -12 -22 -12 -39 0 -22 17 -59 18 -86 4 -13 -7 -19 -7 -19 0 0 5 -11 10
-25 10 -25 0 -25 0 -25 -95z"/>
<path d="M1238 675 c-55 -30 -58 -123 -4 -160 27 -20 110 -20 126 0 19 23 -5
48 -30 32 -22 -13 -71 0 -78 21 -3 9 15 12 67 12 70 0 71 1 71 26 0 15 -12 38
-29 55 -33 33 -78 38 -123 14z m83 -35 c32 -18 21 -30 -26 -30 -46 0 -54 7
-33 28 15 15 33 15 59 2z"/>
<path d="M1430 595 c0 -95 0 -95 25 -95 24 0 25 3 25 54 0 56 16 86 46 86 8 0
14 10 14 25 0 27 -10 31 -41 15 -13 -7 -19 -7 -19 0 0 5 -11 10 -25 10 -25 0
-25 0 -25 -95z"/>
<path d="M1451 416 c-50 -18 -108 -72 -142 -131 l-30 -53 -29 29 c-28 28 -32
29 -127 29 -76 0 -104 -4 -122 -17 -13 -9 -38 -18 -55 -20 -80 -11 -269 -13
-301 -4 -33 9 -35 8 -35 -15 0 -45 32 -64 108 -64 37 0 85 5 107 10 22 5 41 7
43 5 2 -2 -5 -16 -16 -32 -11 -15 -34 -56 -51 -90 l-31 -63 35 0 c30 0 37 5
46 27 13 36 100 175 105 170 2 -2 5 -47 6 -100 l1 -97 38 0 c23 0 39 5 43 15
4 11 22 15 76 15 54 0 72 -4 76 -15 4 -10 20 -15 46 -15 l40 0 -6 35 c-4 20
-4 45 -1 56 l7 21 15 -21 c20 -30 66 -51 108 -51 33 0 35 -2 25 -20 -11 -20
-9 -21 77 -18 l88 3 3 206 2 206 -31 7 c-44 9 -79 6 -118 -8z m82 -142 c-3
-40 -35 -79 -64 -79 -39 0 -37 39 5 81 41 41 62 40 59 -2z m-335 -116 l3 -48
-80 0 -81 0 0 50 0 51 78 -3 77 -3 3 -47z"/>
<path d="M620 297 c-132 -58 -225 -136 -250 -211 -14 -43 -6 -86 16 -86 11 0
13 6 9 20 -26 82 86 193 268 265 65 26 86 45 50 45 -10 0 -52 -15 -93 -33z"/>
<path d="M0 149 l0 -151 32 5 c18 3 52 11 76 18 37 12 49 11 91 -4 63 -22 133
-23 125 -2 -9 23 -65 53 -120 65 -47 10 -106 1 -166 -25 -15 -6 -18 -2 -18 27
0 19 3 63 6 97 l7 61 143 0 c79 0 144 3 144 8 0 4 3 17 6 30 l6 22 -166 0
-166 0 0 -151z"/>
<path d="M533 120 c-36 -22 -58 -52 -68 -92 -6 -23 -4 -28 11 -28 13 0 19 8
20 26 2 29 27 60 64 79 57 29 68 -19 16 -71 -32 -32 -33 -34 -11 -34 49 0 96
95 63 128 -18 18 -59 15 -95 -8z"/>
</g>
</svg>
